<svg xmlns="http://www.w3.org/2000/svg" viewBox="0 0 64 64"><path fill="#f4b393" d="M14.3911 19.6a1 1 0 0 1-.5283-1.85l13.22-8.2A1 1 0 1 1 28.1372 11.25l-13.22 8.2A.9953.9953 0 0 1 14.3911 19.6zM49.96 23.06a.9932.9932 0 0 1-.6236-.2188l-13.92-11.12a1 1 0 1 1 1.2481-1.5625l13.92 11.12A1 1 0 0 1 49.96 23.06z"/><path fill="#fc60a8" d="M61,35H47a1,1,0,0,0-1,1V60H40V19a1,1,0,0,0-1-1H25a1,1,0,0,0-1,1V60H18V32a1,1,0,0,0-1-1H3a1,1,0,0,0-1,1V61a1,1,0,0,0,1,1H61a1,1,0,0,0,1-1V36A1,1,0,0,0,61,35Z"/><circle cx="10" cy="21" r="6" fill="#7a28cb"/><circle cx="32" cy="8" r="6" fill="#7a28cb"/><circle cx="54" cy="25" r="6" fill="#7a28cb"/></svg>